<svg width="20" height="20" viewBox="0 0 20 20" fill="none" xmlns="http://www.w3.org/2000/svg">
<path d="M0.800003 9.99995C0.800002 4.91875 4.9188 0.799951 10 0.79995C15.0812 0.79995 19.2 4.91875 19.2 9.99995C19.2 15.0812 15.0812 19.2 10 19.2C4.9188 19.2 0.800003 15.0812 0.800003 9.99995ZM13.75 6.82635C13.2308 6.65715 8.0564 5.86435 7.0368 5.76635C6.728 5.73675 6.5228 5.83435 6.4312 6.02555C6.32 6.25675 6.3756 6.59915 6.5188 6.99635C6.7152 7.54115 9.6724 14.506 9.8436 14.9084C10.0056 15.29 10.1824 15.6508 10.4384 15.6508C10.6184 15.6508 10.7196 15.544 10.8248 15.2496C10.934 14.9432 11.168 14.1716 11.2936 13.716C11.4148 13.2772 11.3096 12.7776 11.1356 12.4976C10.9512 12.2008 8.6592 8.77555 8.4584 8.52955C8.2576 8.28395 8.5148 8.08795 8.716 8.28875C8.9168 8.48955 11.1988 10.8408 11.5148 11.1508C11.8984 11.5272 12.296 11.26 12.4552 11.0076C12.6368 10.7192 14.028 8.64515 14.2512 8.33275C14.4744 8.02035 14.5756 7.70355 14.5756 7.41355C14.5756 7.12355 14.1936 6.97075 13.75 6.82635Z" fill="black"/>
</svg>
